<?xml version="1.0" standalone="no"?>
<!DOCTYPE svg PUBLIC "-//W3C//DTD SVG 20010904//EN"
 "http://www.w3.org/TR/2001/REC-SVG-20010904/DTD/svg10.dtd">
<svg version="1.0" xmlns="http://www.w3.org/2000/svg"
 width="210.000000pt" height="210.000000pt" viewBox="0 0 210.000000 210.000000"
 preserveAspectRatio="xMidYMid meet">
<metadata>
Created by potrace 1.11, written by Peter Selinger 2001-2013
</metadata>
<g transform="translate(0.000000,210.000000) scale(0.100000,-0.100000)"
fill="#000000" stroke="none">
<path d="M866 2035 c-245 -51 -463 -186 -606 -377 -158 -209 -230 -463 -203
-711 47 -417 338 -755 750 -869 65 -18 105 -22 243 -22 141 0 177 3 250 23 98
26 224 82 307 138 78 51 206 174 258 248 140 197 210 454 184 681 -27 247
-131 458 -305 624 -131 125 -277 207 -444 251 -109 28 -331 35 -434 14z m787
-652 c32 -9 61 -21 63 -28 3 -6 -2 -28 -11 -48 l-15 -36 -38 13 c-141 50 -262
16 -262 -74 0 -64 24 -83 191 -158 121 -54 169 -115 169 -212 0 -131 -92 -200
-265 -200 -68 0 -166 19 -205 40 -18 9 -18 13 -4 54 l15 44 47 -18 c161 -61
302 -24 302 79 0 60 -35 93 -158 146 -128 55 -159 77 -183 129 -36 80 -12 192
52 238 66 49 193 62 302 31z m-1051 -130 c36 -71 87 -177 113 -238 27 -60 51
-113 54 -117 4 -4 39 65 80 155 40 89 93 199 117 245 l45 82 48 0 48 0 6 -67
c9 -96 34 -428 42 -550 l7 -103 -51 0 c-49 0 -50 1 -55 33 -3 17 -8 106 -12
197 -3 91 -9 199 -13 240 l-6 75 -71 -145 c-38 -80 -85 -180 -104 -223 l-34
-78 -43 3 -43 3 -78 170 c-43 94 -90 192 -104 220 l-26 49 -6 -69 c-6 -66 -25
-403 -26 -452 0 -21 -5 -23 -51 -23 l-52 0 7 143 c8 155 32 467 42 535 l6 42
48 0 47 0 65 -127z"/>
</g>
</svg>
