<?xml version="1.0" encoding="UTF-8" standalone="no"?>
<svg
   id="Layer_1"
   x="0"
   y="0"
   viewBox="0 0 398.20776 439.88074"
   version="1.1"
   sodipodi:docname="jest.svg"
   width="398.20776"
   height="439.88074"
   inkscape:version="1.3.2 (091e20ef0f, 2023-11-25)"
   xmlns:inkscape="http://www.inkscape.org/namespaces/inkscape"
   xmlns:sodipodi="http://sodipodi.sourceforge.net/DTD/sodipodi-0.dtd"
   xmlns="http://www.w3.org/2000/svg"
   xmlns:svg="http://www.w3.org/2000/svg">
  <defs
     id="defs8" />
  <sodipodi:namedview
     id="namedview8"
     pagecolor="#ffffff"
     bordercolor="#000000"
     borderopacity="0.25"
     inkscape:showpageshadow="2"
     inkscape:pageopacity="0.0"
     inkscape:pagecheckerboard="0"
     inkscape:deskcolor="#d1d1d1"
     showguides="false"
     inkscape:zoom="0.9140625"
     inkscape:cx="164.10256"
     inkscape:cy="381.81197"
     inkscape:window-width="1499"
     inkscape:window-height="1206"
     inkscape:window-x="1960"
     inkscape:window-y="97"
     inkscape:window-maximized="0"
     inkscape:current-layer="Layer_1" />
  <path
     fill="#c21325"
     stroke="#ffffff"
     stroke-width="20"
     d="m 334.87209,218.102 c -0.54,0.328 -18.349,-2.66 -40.665,-4.171 -18.225,-1.235 -39.456,-1.188 -56.744,-0.017 -14.019,0.949 -32.438,-6.098 -34.639,2.277 -8.238,31.351 -25.963,58.655 -48.511,79.928 -16.963,16.003 -36.377,28.138 -57.375,35.615 -24.999,-12.842 -36.805,-41.404 -26.152,-66.447 8.449,-19.863 18.28,-41.74 0.13,-46.745 -13.213,-3.644 -20.468,9.013 -25.547,22.545 -9.73,25.923 -28.219,52.748 -33.488,84.521 -5.5620006,33.542 -0.018,69.147 28.992,89.253 67.562,46.826 140.9,-29.028 218.225,-48.096 28.024,-6.911 58.785,-5.797 83.475,-20.097 18.541,-10.739 30.764,-28.535 34.233,-48.516 5.58,-32.137 -11.139,-64.066 -41.934,-80.05 z"
     id="path1" />
  <path
     fill="none"
     stroke="#ffffff"
     stroke-width="20"
     d="m 202.82409,216.191 c -8.238,31.351 -25.963,58.655 -48.511,79.928 -16.963,16.003 -36.377,28.138 -57.376,35.615 -24.999,-12.842 -36.805,-41.404 -26.152,-66.447 8.449,-19.863 18.28,-41.74 0.13,-46.745 -13.213,-3.644 -20.468,9.013 -25.547,22.545 -9.73,25.923 -28.219,52.748 -33.488,84.521 -5.5620006,33.542 -0.018,69.147 28.992,89.253 67.562,46.826 140.9,-29.028 218.226,-48.096 28.024,-6.911 58.785,-5.797 83.475,-20.097 18.541,-10.739 30.764,-28.535 34.233,-48.515 5.58,-32.137 -11.139,-64.066 -41.934,-80.05"
     id="path2" />
  <polygon
     fill="#c21325"
     points="275.789,173 340.732,364.641 395.364,254.17 449.685,364.982 514.778,173 "
     id="polygon2"
     transform="translate(-130.51891,-163)" />
  <polygon
     fill="none"
     stroke="#ffffff"
     stroke-width="20"
     points="275.789,173 340.732,364.641 395.364,254.17 449.685,364.982 514.777,173 "
     id="polygon3"
     transform="translate(-130.51891,-163)" />
  <circle
     cx="198.94109"
     cy="216.58301"
     r="40.945"
     fill="#c21325"
     id="circle3" />
  <circle
     cx="198.94109"
     cy="216.58301"
     r="40.945"
     fill="none"
     stroke="#ffffff"
     stroke-width="20"
     id="circle4" />
  <circle
     cx="332.32507"
     cy="216.58301"
     r="40.945"
     fill="#c21325"
     stroke="#ffffff"
     stroke-width="20"
     id="circle5" />
  <circle
     cx="332.32507"
     cy="216.58301"
     r="40.945"
     fill="none"
     stroke="#ffffff"
     stroke-width="20"
     id="circle6" />
  <circle
     cx="65.052086"
     cy="216.87701"
     r="40.945"
     fill="#c21325"
     id="circle7" />
  <circle
     cx="65.052086"
     cy="216.87701"
     r="40.945"
     fill="none"
     stroke="#ffffff"
     stroke-width="20"
     id="circle8" />
</svg>
